<svg version="1.0" xmlns="http://www.w3.org/2000/svg" width="1066.667" height="1066.667" viewBox="0 0 800 800"><path d="M368.5.6c-16.2 1.7-32 3.8-43.5 6C167 36.1 40.8 159.9 8.1 317.3 1.6 348.5.5 359.9.5 399.5c0 40 .8 48.7 7 80 7 35.2 17.2 65 33.5 98 20.5 41.3 43.2 72.9 76.4 106 36.2 36.2 77.7 64.4 123.1 83.9 29.6 12.6 39.1 14.9 48.6 11.8 4.1-1.4 9.3-6.4 10.8-10.5.7-1.8 1.1-17 1.1-42.8 0-37.9-.1-39.9-1.8-39.9-1 0-6.5.7-12.3 1.7-13.4 2.1-45.3 2.4-55.9.4-19.3-3.5-36-11.3-46.9-21.9-7.2-7.1-12.1-14.6-17.6-27.2-11.8-27.3-26.7-47.3-43.6-58.6-14.3-9.5-19.3-17.1-13.6-20.9 3.3-2.1 15-3.4 22.3-2.4 19.3 2.6 38.7 17.5 54.9 41.9 19.8 30 43.6 43.2 75 41.6 11.8-.6 22.8-2.9 34.2-7.1 6.7-2.5 7.1-2.8 7.8-6.3 3.4-19.5 10.6-35.2 20.8-45.9 2.3-2.4 3.9-4.5 3.6-4.7-.2-.3-6.7-1.4-14.4-2.6-102.6-15.2-154.3-65.3-165.1-160-2.3-20.1-1.5-55.4 1.5-68.8 5.6-25.2 15.9-46.7 31.8-66.3 2.9-3.6 5.3-7.2 5.3-7.8 0-.7-.9-4-2-7.4-7.9-25-6.9-57.3 2.5-86.4 3.6-11.1 3.7-11.3 7.2-11.9 9-1.7 30.7 3 49.7 10.7 12.9 5.2 32.3 15.5 47.1 25l9.3 6 9.9-2.5c57.5-14.5 123.1-14.5 180.6 0l9.9 2.5 9.1-5.9c19.7-12.7 40.5-23.3 57-29.1 15.5-5.4 34.3-8.4 41.4-6.5 1.7.5 2.9 2.8 5.8 11.7 9.5 29.1 10.3 64.3 2.1 87.7-.9 2.5-1.6 5.1-1.6 5.9 0 .8 2.4 4.4 5.4 8 15.9 19.5 26.3 41.2 31.8 66.3 2.9 13.5 3.6 48.9 1.4 68.8-9.7 84.7-52.5 134-133.8 153.9-10.7 2.7-26.5 5.5-42 7.6l-4.7.6 5.8 6.9c7.1 8.5 11.1 15.8 15 27.6 5.7 17 6.1 23.6 6.1 93 0 61.7 0 62.8 2.1 67.1 2.6 5.3 8.6 9.1 15.7 10 6 .7 13.7-1.5 32.2-8.9 35.2-14.2 70.1-34.8 101.2-59.6 14.6-11.7 44.5-40.9 55.5-54.2 50.9-61.9 80.7-130.5 91-209.5 2.6-20 2.6-76.8 0-97-7.4-57.7-25.7-110.6-54.9-158.8C685.2 97.5 590.8 30.5 482.1 8 454.2 2.1 440.6.8 405 .5c-17.9-.1-34.3-.1-36.5.1z"/></svg>